<svg width="20" height="20" viewBox="0 0 20 20" fill="none" xmlns="http://www.w3.org/2000/svg">
<g id="add_box_FILL0_wght300_GRAD0_opsz24 1">
<path id="Vector" d="M9.37533 10.6243V13.3327C9.37533 13.51 9.43515 13.6585 9.5548 13.7782C9.67446 13.8978 9.82296 13.9576 10.0003 13.9576C10.1777 13.9576 10.3262 13.8978 10.4458 13.7782C10.5655 13.6585 10.6253 13.51 10.6253 13.3327V10.6243H13.3336C13.511 10.6243 13.6595 10.5645 13.7791 10.4448C13.8988 10.3252 13.9586 10.1767 13.9586 9.99933C13.9586 9.82198 13.8988 9.67348 13.7791 9.55383C13.6595 9.43418 13.511 9.37435 13.3336 9.37435H10.6253V6.666C10.6253 6.48865 10.5655 6.34015 10.4458 6.2205C10.3262 6.10084 10.1777 6.04102 10.0003 6.04102C9.82296 6.04102 9.67446 6.10084 9.5548 6.2205C9.43515 6.34015 9.37533 6.48865 9.37533 6.666V9.37435H6.66697C6.48962 9.37435 6.34112 9.43418 6.22147 9.55383C6.10182 9.67348 6.04199 9.82198 6.04199 9.99933C6.04199 10.1767 6.10182 10.3252 6.22147 10.4448C6.34112 10.5645 6.48962 10.6243 6.66697 10.6243H9.37533ZM4.42341 17.0826C4.00246 17.0826 3.64616 16.9368 3.35449 16.6451C3.06283 16.3535 2.91699 15.9972 2.91699 15.5762V4.42243C2.91699 4.00149 3.06283 3.64518 3.35449 3.35352C3.64616 3.06185 4.00246 2.91602 4.42341 2.91602H15.5772C15.9981 2.91602 16.3545 3.06185 16.6461 3.35352C16.9378 3.64518 17.0836 4.00149 17.0836 4.42243V15.5762C17.0836 15.9972 16.9378 16.3535 16.6461 16.6451C16.3545 16.9368 15.9981 17.0826 15.5772 17.0826H4.42341ZM4.42341 15.8327H15.5772C15.6413 15.8327 15.7001 15.806 15.7535 15.7525C15.8069 15.6991 15.8336 15.6403 15.8336 15.5762V4.42243C15.8336 4.35832 15.8069 4.29955 15.7535 4.24612C15.7001 4.1927 15.6413 4.166 15.5772 4.166H4.42341C4.3593 4.166 4.30053 4.1927 4.2471 4.24612C4.19368 4.29955 4.16697 4.35832 4.16697 4.42243V15.5762C4.16697 15.6403 4.19368 15.6991 4.2471 15.7525C4.30053 15.806 4.3593 15.8327 4.42341 15.8327Z" fill="#787486"/>
</g>
</svg>
