<svg xmlns="http://www.w3.org/2000/svg" width="22" height="22" viewBox="0 0 22 22" fill="none">
  <path d="M18.3452 1.0658H3.46806C2.69514 1.0658 1.95385 1.37284 1.40731 1.91939C0.860757 2.46594 0.553711 3.20721 0.553711 3.98015V18.8573C0.553711 19.6303 0.860757 20.3716 1.40731 20.9181C1.95385 21.4646 2.69514 21.7717 3.46806 21.7717H10.2389V14.214H7.67912V11.266H10.2389V9.0945C10.2389 7.8638 10.5792 6.90745 11.2599 6.22803C11.9406 5.54733 12.8634 5.20568 14.0293 5.20568C15.1966 5.20568 15.9524 5.25098 16.2979 5.33639V7.96086H14.7424C14.1807 7.96086 13.7977 8.07992 13.5919 8.31803C13.3874 8.55486 13.2852 8.91203 13.2852 9.38698V11.266H16.2009L15.8126 14.214H13.2852V21.7717H18.3452C19.1182 21.7717 19.8595 21.4646 20.406 20.9181C20.9526 20.3716 21.2596 19.6303 21.2596 18.8573V3.98015C21.2596 3.20721 20.9526 2.46594 20.406 1.91939C19.8595 1.37284 19.1182 1.0658 18.3452 1.0658Z" fill="white"/>
</svg>