<svg xmlns="http://www.w3.org/2000/svg" width="24" height="28" viewBox="0 0 24 28" fill="none">
  <g clip-path="url(#clip0_83_9951)">
    <path d="M23.625 2.07781C23.6141 2.05605 23.5887 2.04155 23.5632 2.0488C23.3415 2.14308 23.1197 2.22285 22.8907 2.30625C22.2618 2.53831 21.6075 2.6906 20.9532 2.84289C20.2043 3.00969 19.4409 3.12935 18.6957 3.31428C18.0523 3.47019 17.4125 3.65875 16.7945 3.90531C16.3292 4.08661 15.8712 4.28242 15.4422 4.53261C14.9333 4.81181 14.5225 5.22881 14.1227 5.64217C13.7555 6.02653 13.3847 6.41088 13.0612 6.83512C12.8794 7.07444 12.7268 7.33551 12.5813 7.59659C12.8104 6.7336 13.1303 5.86336 13.7155 5.17442C13.7591 5.12003 13.7083 5.05476 13.6465 5.08377C13.4974 5.15629 13.3593 5.25056 13.2175 5.33759C12.1342 6.07004 11.1673 6.98017 10.3348 7.98457C9.92766 8.48133 9.53506 8.98897 9.21153 9.54375C8.83711 10.1928 8.55356 10.8926 8.34999 11.6142C8.32818 11.1863 8.36453 10.7585 8.4227 10.3342C8.4336 10.2581 8.44451 10.1856 8.44814 10.1094C8.44814 10.0586 8.46268 9.98612 8.41179 9.95711C8.37544 9.93898 8.33909 9.95711 8.31364 9.98612C8.28093 10.0188 8.25548 10.055 8.2264 10.0913C8.16823 10.1674 8.11007 10.2472 8.05554 10.327C7.87379 10.5844 7.7102 10.8564 7.56843 11.1392C7.21945 11.8535 6.89956 12.5751 6.57602 13.3003C6.24886 14.0255 5.94714 14.7652 5.63088 15.494C5.32916 16.183 4.99835 16.861 4.65665 17.5318C4.47125 17.8908 4.28222 18.2498 4.06048 18.5906C3.96596 18.7357 3.86781 18.8771 3.76603 19.0149C3.78057 18.9859 3.79511 18.9605 3.80965 18.9315C4.10773 18.3477 4.31131 17.724 4.4967 17.0967C4.64938 16.6942 4.80205 16.2917 4.97291 15.9001C5.17284 15.4541 5.35097 15.0009 5.52182 14.544C5.86353 13.681 6.27794 12.8543 6.75051 12.0529C7.05587 11.5344 7.38303 11.0268 7.68112 10.501C7.96103 10.0079 8.18278 9.48573 8.43724 8.98172C8.62627 8.60461 8.81893 8.22751 8.98252 7.83953C9.02977 7.73075 9.07703 7.61834 9.12065 7.50594C9.13883 7.45155 9.16064 7.39353 9.17155 7.33551C9.17155 7.31376 9.17518 7.28838 9.16064 7.26662C9.12792 7.21586 9.06249 7.23399 9.0225 7.26662C8.90618 7.35364 8.79712 7.44429 8.68443 7.53857C8.32091 7.84678 7.94285 8.13686 7.55389 8.41244C8.38635 7.40441 9.27333 6.37462 9.6732 5.10552C9.70228 4.99674 9.78226 4.72479 9.70228 4.63414C9.64775 4.587 9.58596 4.65227 9.55324 4.69216C9.21517 5.11277 8.85892 5.51889 8.46268 5.88511C8.61536 5.6458 8.76077 5.39923 8.89164 5.14541C9.10975 4.71029 9.32422 4.27154 9.50235 3.81829C9.71319 3.26351 9.87314 2.69423 10.0404 2.12857C10.2112 1.51215 10.3639 0.888479 10.5493 0.275684C10.5675 0.217668 10.5856 0.159652 10.5965 0.0980101C10.5965 0.0798801 10.6038 0.0581241 10.5965 0.0399941C10.5856 0.00736005 10.5456 -0.014396 10.5129 -0.00351796C10.4838 0.00373404 10.4548 0.0218641 10.4293 0.0436201C10.0585 0.391716 9.72773 0.779699 9.37148 1.13867C9.10975 1.407 8.84438 1.67895 8.59355 1.95815C8.08826 2.53106 7.6375 3.15473 7.28125 3.82917C6.95772 4.44196 6.72143 5.10552 6.57602 5.78358C6.37972 6.66833 6.31429 7.57483 6.1907 8.47045C6.04892 8.08247 5.96531 7.67273 5.94714 7.25574C5.93987 7.11795 5.9326 6.97291 5.92533 6.82425C5.92533 6.75535 5.92533 6.60669 5.81991 6.63932C5.78719 6.65745 5.76901 6.69371 5.75084 6.72997C5.71812 6.79524 5.68904 6.86413 5.65996 6.93303C5.56908 7.14334 5.46729 7.34639 5.37278 7.55307C5.10378 8.13323 4.87112 8.73515 4.75116 9.36245C4.64574 9.87734 4.59121 10.4031 4.59121 10.9253C4.59121 11.6577 4.70391 12.3793 4.70027 13.1154C4.50033 12.7926 4.29676 12.4663 4.21316 12.0892C4.16953 11.9115 4.13682 11.7339 4.10773 11.5562C4.10046 11.5054 4.08956 11.451 4.08229 11.4003C4.07502 11.364 4.07502 11.3169 4.04594 11.2915C3.9805 11.2407 3.93688 11.3277 3.92234 11.3821C3.79874 11.7737 3.73695 12.1871 3.72241 12.6005C3.70423 13.0175 3.74422 13.4345 3.7842 13.8514C3.82056 14.2285 3.86054 14.6057 3.88599 14.9864C3.86781 15.1242 3.86054 15.262 3.84964 15.3997C3.80601 16.0778 3.72968 16.7559 3.59881 17.4231C3.51156 17.9597 3.39887 18.4891 3.20984 19.004C3.10079 19.3702 2.95902 19.7256 2.78089 20.0628C2.75181 20.1099 2.72637 20.1607 2.70092 20.2078C2.34831 20.8351 2.02477 21.4769 1.66853 22.1006C1.45405 22.4668 1.24685 22.8403 1.05418 23.221C0.912409 23.4676 0.781542 23.7178 0.668851 23.9752C0.570701 24.1928 0.476187 24.414 0.388942 24.6352C0.356226 24.7295 0.261711 24.918 0.312603 25.0123C0.388942 25.0812 0.45074 24.9905 0.497998 24.8926C0.508903 24.8817 0.519809 24.8709 0.527079 24.86C0.556161 24.8201 0.581607 24.7802 0.603418 24.7367C0.661581 24.6388 0.719744 24.5445 0.774272 24.4503C1.01419 24.0333 1.24685 23.6126 1.48313 23.192C1.83575 22.5393 2.22107 21.9048 2.61004 21.2702C2.67547 21.1651 2.73727 21.0599 2.8027 20.9512C2.88268 20.8351 2.96265 20.7227 3.04626 20.6067C3.1953 20.4036 3.35525 20.2078 3.52974 20.0265C3.74422 19.7908 4.01322 19.5624 4.26405 19.363C4.62757 19.0693 4.95473 18.7357 5.27463 18.3985C6.01984 17.5899 6.72143 16.7414 7.44847 15.9146C7.93195 15.3345 8.45178 14.7761 9.00796 14.2684C9.41874 13.924 9.84405 13.594 10.2766 13.2785C10.9673 12.7854 11.6944 12.3466 12.3814 11.8463C13.1921 11.2552 13.9845 10.6388 14.7116 9.94624C14.7334 9.92085 14.7588 9.89185 14.7443 9.85559C14.7297 9.80845 14.6716 9.8157 14.6316 9.82658C14.468 9.87009 14.3117 9.93536 14.1517 9.97524C13.9882 10.0115 13.8209 10.0441 13.6574 10.0731C13.2102 10.1602 12.7522 10.1964 12.2978 10.2001C12.5559 10.1022 12.8176 10.0079 13.0794 9.92085C13.7301 9.72505 14.388 9.55825 15.0242 9.31894C16.1547 8.93095 17.1435 8.23476 18.0487 7.46968C18.2704 7.28475 18.4958 7.09982 18.6994 6.89314C18.7357 6.84963 18.7902 6.80974 18.7975 6.7481C18.7975 6.67558 18.7103 6.67558 18.6557 6.69008C18.1468 6.79886 17.6343 6.90402 17.1181 6.95841C16.7764 6.99104 16.4201 7.01642 16.0784 6.95478C16.4746 6.83512 16.8745 6.72997 17.2816 6.64657C17.6597 6.57043 18.0414 6.49791 18.4085 6.3855C18.9793 6.2187 19.4918 5.89236 19.9281 5.4935C20.1898 5.24331 20.4333 4.97499 20.6733 4.70303C20.9277 4.41295 21.1567 4.10112 21.4257 3.82192C21.7784 3.45206 22.1637 3.11485 22.5745 2.81389C22.8798 2.57457 23.207 2.37151 23.5451 2.17934C23.5705 2.16483 23.596 2.15758 23.6214 2.14308C23.6432 2.12857 23.6505 2.10319 23.6396 2.07781H23.625ZM3.75876 19.305C3.75876 19.305 3.75876 19.305 3.75149 19.305H3.75512H3.75876ZM4.62757 15.407C4.90747 14.4932 5.17648 13.5759 5.46729 12.6657C5.73993 11.7339 6.01257 10.802 6.29975 9.87734C6.61965 8.78229 6.87411 7.66911 7.21218 6.57768C7.4521 5.80897 7.72111 5.0475 8.02283 4.30055C8.29547 3.62611 8.60082 2.96255 9.01523 2.36064C8.67716 3.16198 8.32818 3.95608 8.03373 4.77193C7.75019 5.48625 7.51027 6.21508 7.30306 6.95478C6.79777 8.59011 6.49242 10.2798 6.0053 11.9188C5.7981 12.644 5.56544 13.3619 5.31462 14.0763C5.13649 14.5875 4.92565 15.0988 4.75116 15.6101C4.3622 16.745 4.00231 17.8908 3.55882 19.0076C3.55155 19.0149 3.54428 19.0221 3.53701 19.0294C3.52247 19.0257 3.50793 19.0294 3.49702 19.033C3.57336 18.7937 3.64607 18.5507 3.70786 18.3078C4.00231 17.336 4.32585 16.3751 4.62757 15.407ZM15.5549 6.49428C15.1332 6.78436 14.7116 7.07444 14.3117 7.3899C13.6465 7.9193 12.9994 8.46683 12.356 9.0216C11.9815 9.3552 11.6435 9.72867 11.2909 10.0876C10.9419 10.4502 10.5893 10.8056 10.2585 11.1827C9.81861 11.6722 9.36785 12.1545 8.94616 12.6621C8.57538 13.0972 8.2373 13.5614 7.90287 14.0255C7.65567 14.3555 7.40485 14.6854 7.17219 15.0263C6.89592 15.4215 6.60874 15.8059 6.33247 16.2011C6.05619 16.6 5.78355 16.9988 5.51455 17.4013C5.3437 17.6551 5.17284 17.9126 4.97291 18.1483C4.73662 18.4275 4.49306 18.7212 4.22406 18.9786C4.12228 19.0693 4.02413 19.1599 3.92598 19.2542C3.92598 19.2542 3.92598 19.2542 3.92234 19.2542C3.87508 19.2433 3.87508 19.1998 3.88599 19.1635C4.07865 18.9496 4.27132 18.7393 4.46035 18.5217C4.68936 18.257 4.89657 17.9742 5.08923 17.6841C6.11436 16.1902 7.15038 14.6999 8.25184 13.2568C8.66262 12.7238 9.08794 12.198 9.54597 11.7048C10.3348 10.8709 11.1491 10.0659 11.9634 9.25367C13.0139 8.20938 14.1336 7.23036 15.3514 6.3855C16.322 5.73282 17.3543 5.17442 18.4195 4.69216C17.4234 5.22518 16.4928 5.87423 15.5549 6.49791V6.49428Z" fill="#5534DA"/>
    <path d="M16.4491 24.8418C16.42 24.9035 16.38 24.9579 16.3364 25.0086C15.8784 25.4836 15.2022 25.7302 14.5624 25.8571C13.9154 25.9913 13.2501 25.868 12.6176 25.7266C13.2465 25.208 13.9517 24.6025 14.0935 23.7576C14.2316 22.746 13.2756 22.0897 12.3559 22.0462C9.28051 21.9446 6.50323 23.609 3.8968 25.0485C2.90803 25.5888 1.80657 26.2813 0.632404 26.0094C0.468821 25.9623 0.301602 25.8571 0.25071 25.6831C0.254345 25.6359 0.232534 25.5815 0.185277 25.5598C-0.178242 25.4873 0.0798562 25.9985 0.247075 26.0892C1.69024 26.9123 3.69686 25.3857 4.97281 24.7258C6.28875 24.0078 7.64831 23.2826 9.08057 22.8149C10.2693 22.4632 11.6761 22.0716 12.9012 22.4015C13.5264 22.5828 14.0135 23.2355 13.8136 23.8882C13.5628 24.6424 12.9121 25.1754 12.305 25.6468C11.3489 25.4184 10.3565 25.1682 9.36775 25.3096C8.82247 25.4075 8.19359 25.5997 7.92095 26.1218C7.49563 26.9775 8.56074 27.1443 9.17872 27.1262C10.3383 27.0899 11.4434 26.6149 12.3595 25.9151C13.3992 26.1871 14.4279 26.2886 15.4421 25.8607C15.9002 25.6504 16.42 25.4184 16.6672 24.9506C16.7435 24.8092 16.5182 24.6932 16.4455 24.8346L16.4491 24.8418ZM9.146 26.8833C8.81157 26.8579 8.22267 26.905 8.0809 26.5315C8.05908 26.0602 8.58255 25.7846 8.97515 25.6649C9.9821 25.3603 11.0436 25.6142 12.0396 25.8462C11.1999 26.459 10.1929 26.8543 9.146 26.8833Z" fill="#5534DA"/>
  </g>
  <defs>
    <clipPath id="clip0_83_9951">
      <rect width="23.6287" height="27.1334" fill="white"/>
    </clipPath>
  </defs>
</svg>