<svg xmlns="http://www.w3.org/2000/svg" width="22" height="22" viewBox="0 0 22 22" fill="none">
  <g clip-path="url(#clip0_3657_10786)">
    <path d="M15.5837 21.0833H6.41699C4.9583 21.0833 3.55935 20.5038 2.5279 19.4724C1.49645 18.4409 0.916992 17.042 0.916992 15.5833V6.41663C0.916992 4.95794 1.49645 3.55899 2.5279 2.52754C3.55935 1.49609 4.9583 0.916626 6.41699 0.916626H15.5837C17.0423 0.916626 18.4413 1.49609 19.4727 2.52754C20.5042 3.55899 21.0837 4.95794 21.0837 6.41663V15.5833C21.0837 17.042 20.5042 18.4409 19.4727 19.4724C18.4413 20.5038 17.0423 21.0833 15.5837 21.0833ZM6.41699 2.74996C5.44453 2.74996 4.5119 3.13627 3.82427 3.8239C3.13663 4.51153 2.75033 5.44417 2.75033 6.41663V15.5833C2.75033 16.5558 3.13663 17.4884 3.82427 18.176C4.5119 18.8636 5.44453 19.25 6.41699 19.25H15.5837C16.5561 19.25 17.4887 18.8636 18.1764 18.176C18.864 17.4884 19.2503 16.5558 19.2503 15.5833V6.41663C19.2503 5.44417 18.864 4.51153 18.1764 3.8239C17.4887 3.13627 16.5561 2.74996 15.5837 2.74996H6.41699Z" fill="white"/>
    <path d="M11 16.5C9.91221 16.5 8.84884 16.1774 7.94437 15.5731C7.0399 14.9687 6.33495 14.1098 5.91867 13.1048C5.50238 12.0998 5.39346 10.9939 5.60568 9.92701C5.8179 8.86011 6.34173 7.8801 7.11092 7.11092C7.8801 6.34173 8.86011 5.8179 9.92701 5.60568C10.9939 5.39346 12.0998 5.50238 13.1048 5.91867C14.1098 6.33495 14.9687 7.0399 15.5731 7.94437C16.1774 8.84884 16.5 9.91221 16.5 11C16.5 12.4587 15.9205 13.8576 14.8891 14.8891C13.8576 15.9205 12.4587 16.5 11 16.5ZM11 7.33334C10.2748 7.33334 9.56589 7.54838 8.96291 7.95128C8.35993 8.35418 7.88997 8.92683 7.61244 9.59683C7.33492 10.2668 7.26231 11.0041 7.40379 11.7153C7.54527 12.4266 7.89448 13.0799 8.40728 13.5927C8.92007 14.1055 9.57341 14.4547 10.2847 14.5962C10.9959 14.7377 11.7332 14.6651 12.4032 14.3876C13.0732 14.11 13.6458 13.6401 14.0487 13.0371C14.4516 12.4341 14.6667 11.7252 14.6667 11C14.6667 10.0275 14.2804 9.09491 13.5927 8.40728C12.9051 7.71964 11.9725 7.33334 11 7.33334Z" fill="white"/>
    <path d="M16.5007 5.49996C17.0069 5.49996 17.4173 5.08955 17.4173 4.58329C17.4173 4.07703 17.0069 3.66663 16.5007 3.66663C15.9944 3.66663 15.584 4.07703 15.584 4.58329C15.584 5.08955 15.9944 5.49996 16.5007 5.49996Z" fill="white"/>
  </g>
  <defs>
    <clipPath id="clip0_3657_10786">
      <rect width="22" height="22" fill="white"/>
    </clipPath>
  </defs>
</svg>