<svg width="16" height="15" viewBox="0 0 16 15" fill="none" xmlns="http://www.w3.org/2000/svg">
<path d="M7.37508 7.70829V10.4166C7.37508 10.594 7.43491 10.7425 7.55456 10.8621C7.67421 10.9818 7.82271 11.0416 8.00006 11.0416C8.17741 11.0416 8.32591 10.9818 8.44556 10.8621C8.56521 10.7425 8.62504 10.594 8.62504 10.4166V7.70829H11.3334C11.5107 7.70829 11.6592 7.64847 11.7789 7.52881C11.8985 7.40916 11.9584 7.26066 11.9584 7.08331C11.9584 6.90597 11.8985 6.75747 11.7789 6.63781C11.6592 6.51816 11.5107 6.45833 11.3334 6.45833H8.62504V3.74998C8.62504 3.57263 8.56521 3.42413 8.44556 3.30448C8.32591 3.18483 8.17741 3.125 8.00006 3.125C7.82271 3.125 7.67421 3.18483 7.55456 3.30448C7.43491 3.42413 7.37508 3.57263 7.37508 3.74998V6.45833H4.66673C4.48938 6.45833 4.34088 6.51816 4.22123 6.63781C4.10157 6.75747 4.04175 6.90597 4.04175 7.08331C4.04175 7.26066 4.10157 7.40916 4.22123 7.52881C4.34088 7.64847 4.48938 7.70829 4.66673 7.70829H7.37508ZM2.42316 14.1666C2.00222 14.1666 1.64591 14.0208 1.35425 13.7291C1.06258 13.4375 0.916748 13.0812 0.916748 12.6602V1.50642C0.916748 1.08547 1.06258 0.729167 1.35425 0.4375C1.64591 0.145833 2.00222 0 2.42316 0H13.577C13.9979 0 14.3542 0.145833 14.6459 0.4375C14.9375 0.729167 15.0834 1.08547 15.0834 1.50642V12.6602C15.0834 13.0812 14.9375 13.4375 14.6459 13.7291C14.3542 14.0208 13.9979 14.1666 13.577 14.1666H2.42316ZM2.42316 12.9166H13.577C13.6411 12.9166 13.6998 12.8899 13.7533 12.8365C13.8067 12.7831 13.8334 12.7243 13.8334 12.6602V1.50642C13.8334 1.44231 13.8067 1.38354 13.7533 1.3301C13.6998 1.27669 13.6411 1.24998 13.577 1.24998H2.42316C2.35905 1.24998 2.30028 1.27669 2.24685 1.3301C2.19344 1.38354 2.16673 1.44231 2.16673 1.50642V12.6602C2.16673 12.7243 2.19344 12.7831 2.24685 12.8365C2.30028 12.8899 2.35905 12.9166 2.42316 12.9166Z" fill="#787486"/>
</svg>
