<svg width="35" height="35" viewBox="0 0 35 35" fill="none" xmlns="http://www.w3.org/2000/svg">
<g clip-path="url(#clip0_494_4219)">
<path d="M34.9945 2.53225C34.9812 2.50574 34.9502 2.48806 34.9191 2.4969C34.6489 2.6118 34.3786 2.70902 34.0995 2.81066C33.3331 3.09349 32.5356 3.2791 31.7381 3.4647C30.8255 3.66798 29.8951 3.81382 28.9869 4.0392C28.2027 4.22922 27.4229 4.45902 26.6698 4.75953C26.1027 4.98048 25.5445 5.21912 25.0217 5.52404C24.4014 5.86432 23.9008 6.37253 23.4134 6.87632C22.966 7.34475 22.5141 7.81319 22.1198 8.33023C21.8983 8.6219 21.7122 8.94008 21.535 9.25826C21.8141 8.20649 22.204 7.14589 22.9172 6.30624C22.9704 6.23995 22.9084 6.16041 22.8331 6.19576C22.6514 6.28415 22.4831 6.39905 22.3103 6.50511C20.99 7.39778 19.8115 8.507 18.797 9.73112C18.3008 10.3365 17.8223 10.9552 17.428 11.6314C16.9717 12.4224 16.6261 13.2753 16.378 14.1547C16.3514 13.6333 16.3957 13.1118 16.4666 12.5948C16.4799 12.5019 16.4932 12.4136 16.4976 12.3208C16.4976 12.2589 16.5153 12.1705 16.4533 12.1352C16.409 12.1131 16.3647 12.1352 16.3337 12.1705C16.2938 12.2103 16.2628 12.2545 16.2274 12.2987C16.1565 12.3915 16.0856 12.4887 16.0191 12.5859C15.7976 12.8997 15.5983 13.2311 15.4255 13.5758C15.0002 14.4464 14.6103 15.3258 14.216 16.2097C13.8172 17.0935 13.4495 17.995 13.0641 18.8833C12.6964 19.7229 12.2932 20.5493 11.8767 21.3668C11.6508 21.8043 11.4204 22.2418 11.1502 22.6573C11.035 22.834 10.9153 23.0064 10.7913 23.1743C10.809 23.1389 10.8267 23.108 10.8445 23.0727C11.2077 22.3612 11.4558 21.6011 11.6818 20.8365C11.8679 20.346 12.054 19.8555 12.2622 19.3782C12.5058 18.8347 12.7229 18.2823 12.9312 17.7254C13.3476 16.6737 13.8527 15.6661 14.4286 14.6894C14.8008 14.0575 15.1995 13.4388 15.5628 12.798C15.904 12.197 16.1742 11.5607 16.4843 10.9464C16.7147 10.4868 16.9495 10.0272 17.1489 9.55435C17.2065 9.42177 17.2641 9.28478 17.3172 9.14778C17.3394 9.08149 17.366 9.01079 17.3793 8.94008C17.3793 8.91356 17.3837 8.88263 17.366 8.85612C17.3261 8.79425 17.2464 8.81634 17.1976 8.85612C17.0558 8.96218 16.9229 9.07266 16.7856 9.18756C16.3426 9.56319 15.8818 9.91672 15.4077 10.2526C16.4223 9.02404 17.5033 7.76899 17.9907 6.22228C18.0261 6.0897 18.1236 5.75826 18.0261 5.64778C17.9596 5.59033 17.8843 5.66988 17.8445 5.71849C17.4324 6.23112 16.9983 6.72606 16.5153 7.1724C16.7014 6.88074 16.8786 6.58023 17.0381 6.27089C17.304 5.74059 17.5653 5.20586 17.7824 4.65346C18.0394 3.97733 18.2343 3.28351 18.4381 2.59412C18.6464 1.84286 18.8324 1.08276 19.0584 0.335914C19.0805 0.265207 19.1027 0.1945 19.116 0.119374C19.116 0.0972776 19.1248 0.0707624 19.116 0.0486665C19.1027 0.00889376 19.054 -0.0176214 19.0141 -0.00436381C18.9786 0.00447457 18.9432 0.0265705 18.9122 0.0530857C18.4603 0.477328 18.0571 0.950182 17.6229 1.38768C17.304 1.7147 16.9805 2.04614 16.6748 2.38642C16.059 3.08465 15.5096 3.84475 15.0755 4.66672C14.6812 5.41357 14.3932 6.22228 14.216 7.04867C13.9767 8.12695 13.897 9.23175 13.7464 10.3233C13.5736 9.85043 13.4717 9.35106 13.4495 8.84286C13.4407 8.67493 13.4318 8.49816 13.4229 8.31697C13.4229 8.23301 13.4229 8.05182 13.2945 8.09159C13.2546 8.11369 13.2324 8.15788 13.2103 8.20208C13.1704 8.28162 13.135 8.36559 13.0995 8.44955C12.9888 8.70586 12.8647 8.95334 12.7495 9.20523C12.4217 9.9123 12.1381 10.6459 11.9919 11.4104C11.8634 12.0379 11.797 12.6787 11.797 13.3151C11.797 14.2078 11.9343 15.0872 11.9299 15.9843C11.6862 15.591 11.4381 15.1932 11.3362 14.7336C11.2831 14.5171 11.2432 14.3006 11.2077 14.084C11.1989 14.0222 11.1856 13.9559 11.1767 13.894C11.1679 13.8498 11.1679 13.7924 11.1324 13.7614C11.0527 13.6995 10.9995 13.8056 10.9818 13.8719C10.8312 14.3492 10.7558 14.853 10.7381 15.3567C10.716 15.865 10.7647 16.3732 10.8134 16.8814C10.8577 17.341 10.9065 17.8006 10.9375 18.2646C10.9153 18.4325 10.9065 18.6004 10.8932 18.7684C10.84 19.5948 10.747 20.4211 10.5875 21.2343C10.4812 21.8883 10.3438 22.5335 10.1134 23.161C9.98053 23.6074 9.80775 24.0405 9.59066 24.4514C9.55522 24.5089 9.5242 24.5708 9.49319 24.6282C9.06344 25.3927 8.66914 26.1749 8.23496 26.935C7.97357 27.3814 7.72104 27.8365 7.48623 28.3006C7.31344 28.6011 7.15395 28.906 7.01661 29.2198C6.89699 29.4849 6.7818 29.7545 6.67547 30.024C6.6356 30.1389 6.52041 30.3687 6.58243 30.4836C6.67547 30.5676 6.75079 30.4571 6.80838 30.3378C6.82167 30.3246 6.83496 30.3113 6.84382 30.298C6.87927 30.2494 6.91028 30.2008 6.93686 30.1478C7.00775 30.0285 7.07863 29.9136 7.14509 29.7987C7.4375 29.2905 7.72104 28.7778 8.00901 28.2652C8.43876 27.4698 8.90838 26.6964 9.38243 25.923C9.46218 25.7949 9.5375 25.6667 9.61724 25.5341C9.71471 25.3927 9.81218 25.2557 9.91408 25.1143C10.0957 24.8668 10.2907 24.6282 10.5033 24.4073C10.7647 24.12 11.0926 23.8416 11.3983 23.5985C11.8413 23.2406 12.24 22.834 12.6299 22.423C13.5381 21.4376 14.3932 20.4035 15.2793 19.3959C15.8685 18.6888 16.5021 18.0083 17.1799 17.3896C17.6805 16.9698 18.1989 16.5676 18.7261 16.1831C19.5679 15.5821 20.454 15.0474 21.2913 14.4376C22.2793 13.7172 23.2451 12.966 24.1312 12.1219C24.1577 12.091 24.1888 12.0556 24.171 12.0114C24.1533 11.954 24.0824 11.9628 24.0337 11.9761C23.8343 12.0291 23.6438 12.1086 23.4489 12.1573C23.2495 12.2014 23.0457 12.2412 22.8464 12.2766C22.3014 12.3826 21.7432 12.4268 21.1894 12.4312C21.504 12.3119 21.8229 12.197 22.1419 12.091C22.935 11.8523 23.7369 11.649 24.5122 11.3574C25.89 10.8845 27.0951 10.036 28.1983 9.10359C28.4685 8.87821 28.7432 8.65283 28.9913 8.40094C29.0356 8.34791 29.1021 8.2993 29.1109 8.22417C29.1109 8.13579 29.0046 8.13579 28.9381 8.15346C28.3179 8.28604 27.6932 8.4142 27.0641 8.48048C26.6476 8.52026 26.2134 8.55119 25.797 8.47606C26.2799 8.33023 26.7672 8.20208 27.2634 8.10043C27.7242 8.00763 28.1894 7.91925 28.6369 7.78225C29.3324 7.57897 29.9571 7.18124 30.4888 6.69513C30.8077 6.39021 31.1046 6.06319 31.397 5.73175C31.7071 5.37821 31.9862 4.99816 32.3141 4.65788C32.7438 4.20713 33.2134 3.79614 33.7141 3.42935C34.0862 3.13768 34.485 2.89021 34.897 2.65599C34.928 2.63831 34.959 2.62947 34.99 2.6118C35.0166 2.59412 35.0255 2.56319 35.0122 2.53225H34.9945ZM10.7824 23.5278C10.7824 23.5278 10.7824 23.5278 10.7736 23.5278H10.778H10.7824ZM11.8413 18.7772C12.1824 17.6636 12.5103 16.5455 12.8647 15.4363C13.197 14.3006 13.5293 13.1648 13.8793 12.0379C14.2691 10.7033 14.5793 9.34665 14.9913 8.01647C15.2837 7.0796 15.6115 6.15157 15.9793 5.24122C16.3115 4.41925 16.6837 3.61054 17.1888 2.87695C16.7767 3.85359 16.3514 4.82139 15.9926 5.81571C15.647 6.68629 15.3546 7.57455 15.1021 8.47606C14.4862 10.4691 14.1141 12.5285 13.5204 14.5259C13.2679 15.4098 12.9843 16.2848 12.6786 17.1554C12.4615 17.7785 12.2046 18.4016 11.9919 19.0247C11.5179 20.4079 11.0793 21.8043 10.5388 23.1655C10.5299 23.1743 10.521 23.1831 10.5122 23.192C10.4945 23.1876 10.4767 23.192 10.4634 23.1964C10.5565 22.9047 10.6451 22.6086 10.7204 22.3126C11.0793 21.1282 11.4736 19.9571 11.8413 18.7772ZM25.159 7.91483C24.6451 8.26836 24.1312 8.6219 23.6438 9.00637C22.8331 9.65157 22.0445 10.3189 21.2603 10.995C20.804 11.4016 20.3919 11.8567 19.9622 12.2942C19.5369 12.7362 19.1071 13.1692 18.704 13.6288C18.1679 14.2254 17.6185 14.8132 17.1046 15.4319C16.6527 15.9622 16.2407 16.5278 15.8331 17.0935C15.5318 17.4956 15.2261 17.8978 14.9426 18.3132C14.6058 18.7949 14.2558 19.2633 13.9191 19.745C13.5824 20.2311 13.2502 20.7172 12.9223 21.2078C12.7141 21.5171 12.5058 21.8309 12.2622 22.1181C11.9742 22.4584 11.6774 22.8163 11.3495 23.1301C11.2255 23.2406 11.1058 23.3511 10.9862 23.466C10.9862 23.466 10.9862 23.466 10.9818 23.466C10.9242 23.4527 10.9242 23.3997 10.9375 23.3555C11.1723 23.0948 11.4071 22.8384 11.6375 22.5733C11.9166 22.2507 12.1691 21.906 12.404 21.5525C13.6533 19.7317 14.916 17.9155 16.2584 16.1566C16.759 15.507 17.2774 14.8662 17.8356 14.2652C18.797 13.2488 19.7894 12.2677 20.7818 11.2778C22.0622 10.0051 23.4267 8.81192 24.9109 7.78225C26.0938 6.9868 27.3521 6.30624 28.6502 5.71849C27.4362 6.36811 26.3021 7.15915 25.159 7.91925V7.91483Z" fill="#5534DA"/>
<path d="M26.2493 30.2759C26.2138 30.351 26.1651 30.4173 26.1119 30.4792C25.5537 31.0581 24.7296 31.3586 23.9499 31.5132C23.1613 31.6768 22.3505 31.5265 21.5796 31.3542C22.3461 30.7222 23.2056 29.9842 23.3784 28.9545C23.5467 27.7216 22.3815 26.9217 21.2607 26.8687C17.5126 26.7449 14.1277 28.7733 10.9512 30.5278C9.7461 31.1862 8.40369 32.0303 6.97268 31.6989C6.77331 31.6414 6.56951 31.5132 6.50749 31.3011C6.51192 31.2437 6.48534 31.1774 6.42774 31.1509C5.9847 31.0625 6.29926 31.6856 6.50306 31.7961C8.26192 32.7992 10.7075 30.9388 12.2626 30.1345C13.8663 29.2595 15.5233 28.3756 17.2689 27.8055C18.7176 27.3769 20.4322 26.8996 21.9252 27.3018C22.6872 27.5227 23.2809 28.3182 23.0372 29.1136C22.7315 30.0328 21.9385 30.6824 21.1986 31.2569C20.0334 30.9785 18.8239 30.6736 17.6189 30.846C16.9543 30.9653 16.1879 31.1995 15.8556 31.8358C15.3372 32.8788 16.6353 33.0821 17.3885 33.06C18.8018 33.0158 20.1486 32.4369 21.2651 31.584C22.5322 31.9154 23.786 32.0391 25.022 31.5177C25.5803 31.2614 26.2138 30.9785 26.5151 30.4084C26.6081 30.2361 26.3334 30.0947 26.2448 30.267L26.2493 30.2759ZM17.3486 32.7639C16.941 32.7329 16.2233 32.7904 16.0505 32.3352C16.0239 31.7607 16.6619 31.4249 17.1404 31.279C18.3676 30.9078 19.6613 31.2172 20.8752 31.5C19.8518 32.2468 18.6246 32.7285 17.3486 32.7639Z" fill="#5534DA"/>
</g>
<defs>
<clipPath id="clip0_494_4219">
<rect width="28.7975" height="33.0688" fill="white" transform="translate(6.20215)"/>
</clipPath>
</defs>
</svg>
