<svg width="20" height="15" viewBox="0 0 20 15" fill="none" xmlns="http://www.w3.org/2000/svg">
<path d="M-0.000259399 1.64865C-0.000259399 1.09637 0.447456 0.648651 0.999741 0.648651H19C19.5523 0.648651 20 1.09637 20 1.64865C20 2.20094 19.5523 2.64865 19 2.64865H0.999741C0.447456 2.64865 -0.000259399 2.20094 -0.000259399 1.64865Z" fill="#787486"/>
<path d="M-0.000259399 7.71519C-0.000259399 7.16291 0.447456 6.71519 0.999741 6.71519H19C19.5523 6.71519 20 7.16291 20 7.71519C20 8.26748 19.5523 8.71519 19 8.71519H0.999741C0.447456 8.71519 -0.000259399 8.26748 -0.000259399 7.71519Z" fill="#787486"/>
<path d="M0.999741 12.539C0.447456 12.539 -0.000259399 12.9867 -0.000259399 13.539C-0.000259399 14.0912 0.447456 14.539 0.999741 14.539H19C19.5523 14.539 20 14.0912 20 13.539C20 12.9867 19.5523 12.539 19 12.539H0.999741Z" fill="#787486"/>
</svg>
