<svg width="16" height="16" viewBox="0 0 16 16" fill="none" xmlns="http://www.w3.org/2000/svg">
<path d="M6.7339 15.9163C6.54692 15.9163 6.38506 15.8535 6.24831 15.728C6.11156 15.6025 6.0293 15.4462 6.00152 15.2592L5.75954 13.3778C5.53625 13.3031 5.30735 13.1983 5.07283 13.0637C4.83832 12.9291 4.62865 12.7849 4.44381 12.631L2.70344 13.365C2.52502 13.443 2.34794 13.4521 2.17219 13.3922C1.99644 13.3324 1.85835 13.2202 1.75792 13.0557L0.504749 10.8731C0.409652 10.7085 0.38027 10.5328 0.416603 10.3458C0.452923 10.1588 0.546402 10.0082 0.697041 9.89391L2.20346 8.75447C2.18422 8.63054 2.1706 8.50607 2.16258 8.38107C2.15457 8.25607 2.15056 8.13161 2.15056 8.00768C2.15056 7.88908 2.15457 7.76861 2.16258 7.64628C2.1706 7.52395 2.18422 7.39013 2.20346 7.24484L0.697041 6.1054C0.546402 5.9911 0.451589 5.84046 0.412603 5.65349C0.373603 5.46653 0.404319 5.29079 0.504749 5.12626L1.75792 2.95963C1.85835 2.79511 1.9951 2.68292 2.16819 2.62309C2.34126 2.56326 2.517 2.57234 2.69542 2.65034L4.43579 3.3763C4.63665 3.21711 4.85113 3.07154 5.07923 2.93959C5.30734 2.80763 5.53144 2.70159 5.75152 2.62147L6.00152 0.74007C6.0293 0.553098 6.11156 0.396848 6.24831 0.27132C6.38506 0.145779 6.54692 0.0830078 6.7339 0.0830078H9.25789C9.44485 0.0830078 9.60804 0.145779 9.74746 0.27132C9.88689 0.396848 9.97049 0.553098 9.99827 0.74007L10.2402 2.62949C10.4902 2.72029 10.7165 2.82633 10.919 2.94759C11.1214 3.06886 11.3257 3.21176 11.5319 3.3763L13.3044 2.65034C13.4828 2.57234 13.6585 2.56192 13.8316 2.61909C14.0047 2.67624 14.1414 2.78708 14.2419 2.95161L15.495 5.12626C15.5955 5.29079 15.6262 5.46653 15.5872 5.65349C15.5482 5.84046 15.4534 5.9911 15.3027 6.1054L13.7643 7.26886C13.7942 7.40349 13.8105 7.52929 13.8132 7.64628C13.8158 7.76327 13.8172 7.88106 13.8172 7.99966C13.8172 8.11291 13.8145 8.22802 13.8092 8.34501C13.8038 8.462 13.7846 8.59581 13.7515 8.74647L15.2739 9.89391C15.4245 10.0082 15.5194 10.1588 15.5584 10.3458C15.5974 10.5328 15.5666 10.7085 15.4662 10.8731L14.213 13.0429C14.1126 13.2074 13.9724 13.3204 13.7924 13.3818C13.6123 13.4433 13.4331 13.435 13.2547 13.357L11.5319 12.623C11.3257 12.7876 11.1153 12.9331 10.9005 13.0597C10.6858 13.1863 10.4657 13.2897 10.2402 13.3698L9.99827 15.2592C9.97049 15.4462 9.88689 15.6025 9.74746 15.728C9.60804 15.8535 9.44485 15.9163 9.25789 15.9163H6.7339ZM7.16656 14.6663H8.80437L9.10406 12.4339C9.52927 12.3228 9.91789 12.165 10.2699 11.9604C10.6219 11.7558 10.9614 11.4927 11.2884 11.1711L13.3589 12.0413L14.1794 10.6247L12.3717 9.26247C12.4411 9.04666 12.4884 8.83513 12.5135 8.62786C12.5386 8.4206 12.5512 8.2112 12.5512 7.99966C12.5512 7.78278 12.5386 7.57338 12.5135 7.37145C12.4884 7.16953 12.4411 6.96334 12.3717 6.75286L14.1954 5.37465L13.3749 3.95799L11.2803 4.84101C11.0015 4.54293 10.6674 4.27957 10.2779 4.05095C9.88851 3.82231 9.49454 3.66045 9.09604 3.56536L8.83323 1.33299H7.17937L6.90375 3.55734C6.47853 3.65777 6.0859 3.81162 5.72585 4.01888C5.36581 4.22615 5.02233 4.49325 4.69542 4.82018L2.6249 3.95799L1.80437 5.37465L3.60406 6.71601C3.53462 6.91365 3.48601 7.11931 3.45823 7.33299C3.43045 7.54667 3.41656 7.77156 3.41656 8.00768C3.41656 8.22455 3.43045 8.43715 3.45823 8.64549C3.48601 8.85382 3.53194 9.05948 3.59604 9.26247L1.80437 10.6247L2.6249 12.0413L4.6874 11.1663C5.00363 11.4911 5.34177 11.7571 5.70181 11.9644C6.06185 12.1717 6.45983 12.3309 6.89573 12.442L7.16656 14.6663ZM8.0095 10.4996C8.70287 10.4996 9.29288 10.2563 9.77952 9.76968C10.2662 9.28302 10.5095 8.69302 10.5095 7.99966C10.5095 7.30629 10.2662 6.71629 9.77952 6.22963C9.29288 5.743 8.70287 5.49968 8.0095 5.49968C7.3076 5.49968 6.71546 5.743 6.23308 6.22963C5.75072 6.71629 5.50954 7.30629 5.50954 7.99966C5.50954 8.69302 5.75072 9.28302 6.23308 9.76968C6.71546 10.2563 7.3076 10.4996 8.0095 10.4996Z" fill="#787486"/>
</svg>
